<?xml version="1.0" encoding="UTF-8"?>
<svg id="Layer_1" xmlns="http://www.w3.org/2000/svg" version="1.1" viewBox="0 0 180 48.4">
  <!-- Generator: Adobe Illustrator 29.0.1, SVG Export Plug-In . SVG Version: 2.1.0 Build 192)  -->
  <defs>
    <style>
      .st0 {
        fill: #b3b3b3;
      }
    </style>
  </defs>
  <path class="st0" d="M60.4,17.9c0-1,.8-1.8,1.7-1.8,0,0,0,0,0,0h5.7c1.5-.1,3,.4,4.2,1.4.7.7,1.1,1.7,1.1,2.7h0c0,1.5-.8,2.9-2.1,3.5,1.8.5,3.1,2.2,3,4h0c0,3-2.4,4.4-6,4.4h-5.9c-1,0-1.8-.8-1.8-1.7,0,0,0,0,0,0v-12.6h0ZM67.1,22.6c1.6,0,2.5-.5,2.5-1.7h0c0-1.1-.8-1.7-2.3-1.7h-3.5v3.4s3.2,0,3.2,0ZM68.1,29.1c1.6,0,2.5-.5,2.5-1.7h0c0-1.1-.8-1.8-2.6-1.8h-4.1v3.5h4.2Z"/>
  <path class="st0" d="M76.8,21.6c0-1,.8-1.7,1.7-1.7,1,0,1.7.8,1.7,1.7v8.9c0,1-.8,1.7-1.7,1.7-1,0-1.7-.8-1.7-1.7v-8.9Z"/>
  <path class="st0" d="M83.5,21.6c0-1,.8-1.7,1.7-1.7,1,0,1.7.8,1.7,1.7v.5c.5-1.2,1.3-2.3,2.4-2.3.9,0,1.7.7,1.7,1.7,0,.8-.5,1.5-1.3,1.6-1.8.4-2.7,1.8-2.7,4.2v3.1c0,1-.8,1.7-1.7,1.7-1,0-1.7-.8-1.7-1.7h0v-8.9h0Z"/>
  <path class="st0" d="M105.2,30.5c0,1-.8,1.7-1.7,1.7-1,0-1.7-.8-1.7-1.7v-.2c-.9,1.2-2.3,2-3.8,1.9-2.9,0-5.6-2-5.6-6.1h0c0-4.1,2.7-6.3,5.6-6.3,1.5,0,2.9.6,3.8,1.7v-3.7c0-1,.8-1.7,1.7-1.7,1,0,1.7.8,1.7,1.7h0v12.6ZM95.8,26.1h0c-.2,1.7,1,3.2,2.6,3.4s3.2-1,3.4-2.6c0-.2,0-.5,0-.8h0c.2-1.7-1-3.2-2.6-3.4s-3.2,1-3.4,2.6c0,.2,0,.5,0,.8Z"/>
  <path class="st0" d="M150.3,30.5c0,1-.8,1.7-1.7,1.7-1,0-1.7-.8-1.7-1.7v-.2c-.9,1.2-2.3,2-3.8,1.9-2.9,0-5.6-2-5.6-6.1h0c0-4.1,2.7-6.3,5.6-6.3,1.5,0,2.9.6,3.8,1.7v-3.7c0-1,.8-1.7,1.7-1.7,1,0,1.7.8,1.7,1.7v12.6ZM140.9,26.1h0c-.2,1.7,1,3.2,2.6,3.4,1.6.2,3.2-1,3.4-2.6,0-.3,0-.5,0-.8h0c.2-1.7-1-3.2-2.6-3.4-1.6-.2-3.2,1-3.4,2.6,0,.3,0,.5,0,.8Z"/>
  <path class="st0" d="M165.8,30.5c0,1-.8,1.7-1.7,1.7-1,0-1.7-.8-1.7-1.7v-.2c-.9,1.2-2.3,2-3.8,1.9-2.9,0-5.6-2-5.6-6.1h0c0-4.1,2.7-6.3,5.6-6.3,1.5,0,2.9.6,3.8,1.7v-3.7c0-1,.8-1.7,1.7-1.7,1,0,1.7.8,1.7,1.7v12.6ZM156.4,26.1h0c-.2,1.7,1,3.2,2.6,3.4s3.2-1,3.4-2.6c0-.2,0-.5,0-.8h0c.2-1.7-1-3.2-2.6-3.4s-3.2,1-3.4,2.6c0,.2,0,.5,0,.8Z"/>
  <path class="st0" d="M108.3,17.9c0-1,.8-1.7,1.7-1.7,1,0,1.7.8,1.7,1.7h0v3.7c.9-1.2,2.3-1.8,3.8-1.7,2.9,0,5.6,2.2,5.6,6.2h0c0,4.1-2.7,6.2-5.6,6.2-1.5,0-3-.7-3.8-1.9v.2c0,1-.8,1.7-1.7,1.7-1,0-1.7-.8-1.7-1.7h0v-12.6h0ZM114.7,22.7c-1.7,0-3.1,1.5-3,3.2,0,0,0,.1,0,.2h0c-.2,1.7,1,3.2,2.6,3.4,1.6.2,3.2-1,3.4-2.6,0-.3,0-.5,0-.8h0c.2-1.8-1.1-3.3-2.8-3.4,0,0-.1,0-.2,0Z"/>
  <path class="st0" d="M134.9,30.5c0,1-.8,1.7-1.7,1.7-1,0-1.7-.8-1.7-1.7h0c-.8,1.1-2.2,1.8-3.6,1.7-2.6,0-4.2-1.5-4.2-4.3v-6.3c0-1,.8-1.7,1.7-1.7,1,0,1.7.8,1.7,1.7v5.2c0,1.6.8,2.5,2.1,2.5s2.2-.8,2.2-2.5v-5.2c0-1,.8-1.7,1.7-1.7s1.7.8,1.7,1.7h0v8.9h0Z"/>
  <path class="st0" d="M169.5,35.7c-.6-.2-1.1-.8-1.1-1.4,0-.8.6-1.4,1.4-1.4,0,0,0,0,0,0,.2,0,.4,0,.6,0,.2,0,.5.1.7.1.5,0,1.1-.2,1.2-.7v-.3c.1,0-4.1-9.7-4.1-9.7-.1-.3-.2-.5-.2-.8,0-.9.7-1.7,1.6-1.7,0,0,0,0,0,0,.8,0,1.5.5,1.7,1.3l2.7,7.1,2.6-7.1c.2-.8.9-1.3,1.7-1.3.9,0,1.6.7,1.6,1.6,0,0,0,0,0,0,0,.3,0,.6-.2.8l-4.3,10.3c-1,2.5-2.1,3.4-4.1,3.4-.6,0-1.3,0-1.9-.3h0Z"/>
  <path class="st0" d="M78.5,18.1c1.1,0,2-.9,2-2s-.9-2-2-2c-1.1,0-2,.9-2,2h0c0,1.1.9,2,2,2Z"/>
  <path class="st0" d="M24.2,0C10.8,0,0,10.8,0,24.2s10.8,24.2,24.2,24.2,24.2-10.8,24.2-24.2h0C48.4,10.8,37.5,0,24.2,0ZM26.8,37.6h-5.3c-4.8,0-8.7-3.9-8.7-8.7v-.6c0-.7-.3-1.4-.8-1.9l-1.4-1.4c-.4-.4-.4-1.1,0-1.6,0,0,0,0,0,0l1.4-1.4c.5-.5.8-1.2.8-1.9v-.6c0-4.8,3.9-8.7,8.7-8.7h3.9c4.5,0,8.1,3.5,8.1,8,0,.5,0,1-.1,1.6-.2,1.3,0,2.7.8,3.9.9,1.4,1.4,3.1,1.4,4.7,0,4.8-4,8.7-8.8,8.7Z"/>
  <path class="st0" d="M20.8,21.2c0,1.3-1,2.3-2.3,2.4h0c0,0-.1,0-.2,0-1.1,0-2.1-1-2.2-2.2,0,0,0-.1,0-.2,0-1.3,1.1-2.3,2.4-2.3,1.3,0,2.3,1,2.3,2.3,0,0,0,0,0,0Z"/>
</svg>