<?xml version="1.0" encoding="UTF-8"?>
<svg id="Layer_1" xmlns="http://www.w3.org/2000/svg" version="1.1" viewBox="0 0 1080 1080">
  <!-- Generator: Adobe Illustrator 29.0.1, SVG Export Plug-In . SVG Version: 2.1.0 Build 192)  -->
  <defs>
    <style>
      .st0 {
        fill: #b3b3b3;
      }
    </style>
  </defs>
  <path class="st0" d="M540,35c-278.9,0-505,226.1-505,505s226.1,505,505,505,505-226.1,505-505S818.9,35,540,35ZM833.1,370.8h72v236.1h-72v-236.1ZM325.2,641c46.4,0,85.5-31.4,97.3-74.1h79.2c-13,85.8-87,151.5-176.4,151.5s-178.4-79.9-178.4-178.4,79.9-178.4,178.4-178.4,163.4,65.7,176.4,151.5h-79.2c-11.8-42.7-50.8-74.1-97.3-74.1s-101,45.2-101,101,45.2,101,101,101ZM802.7,703.6h-72v-130.4h-140.7v130.4h-72v-332.8h72v130.4h140.7v-130.4h72v332.8ZM868.4,710.6c-24.2,0-43.8-19.6-43.8-43.8s19.6-43.8,43.8-43.8,43.8,19.6,43.8,43.8-19.6,43.8-43.8,43.8Z"/>
</svg>