<?xml version="1.0" encoding="UTF-8"?>
<svg id="Layer_1" xmlns="http://www.w3.org/2000/svg" version="1.1" viewBox="0 0 784 190">
  <!-- Generator: Adobe Illustrator 29.0.1, SVG Export Plug-In . SVG Version: 2.1.0 Build 192)  -->
  <defs>
    <style>
      .st0 {
        fill: #b0b0b0;
      }
    </style>
  </defs>
  <path class="st0" d="M17,16.7h85.3L17,95.5V16.7ZM17,102.1v72.2L187.7,16.7h-78.8L17,102.1ZM443.4,140.1l22.3-89.1h-39.4l-22.3,89.1h39.4ZM336.4,102.6h-9l14.6-25.7,4.7,25.7h-10.3v22.6h14.4l2.7,14.9h38.5l-16.4-89.1h-44.8l-50.7,89.1h26.1l8.4-14.9h21.8v-22.6h0ZM623.4,140.1l22.2-89.1h-39.4l-22.2,89.1h39.4ZM527.3,140.1h45.6l-33.8-46.7,49.5-42.5h-40.4l-33.8,29.2,7.4-29.2h-37.8l-22.2,89.1h37.6l7.7-30.8,20.1,30.8h0ZM214.4,120.4h-6.4l12.3-48.1h12.7c4.5,0,17.7,1.2,16.2,19.1,0,0-2.6,29-27.2,29h-7.5v19.7h19.4c27.3,0,54.1-20.3,54.1-51.4s-40.7-37.7-40.7-37.7h-59.5l-22.2,89.1h48.9v-19.7h-.1ZM670.3,140.1l13.3-53,17.6,53h43.6l22.3-89.2h-27.3l-13.1,52.5-17.5-52.5h-43.8l-22.3,89.2h27.2Z"/>
</svg>