<?xml version="1.0" encoding="UTF-8"?>
<svg id="Layer_1" xmlns="http://www.w3.org/2000/svg" version="1.1" viewBox="0 0 161 40">
  <!-- Generator: Adobe Illustrator 29.0.1, SVG Export Plug-In . SVG Version: 2.1.0 Build 192)  -->
  <defs>
    <style>
      .st0 {
        fill: #b3b3b3;
      }
    </style>
  </defs>
  <g id="Group_5400">
    <path id="Vector" class="st0" d="M154,12.1c.3.1.6.2,1,.2s.8-.2.8-.6-.3-.6-.9-.8c-.6-.2-1-.5-1-1.1s.5-1.1,1.3-1.1.7,0,1,.2v.5c-.4,0-.7-.2-.9-.2-.5,0-.7.2-.7.5s.2.5.7.7c.7.2,1.2.5,1.2,1.2s-.6,1.1-1.4,1.1-.9,0-1.2-.2v-.5c.1,0,.1,0,.1,0ZM161,8.8v3.9h-.5v-2.3c0-.2,0-.5,0-.7-.3.7-.7,1.5-1.2,2.3h-.5c-.5-.8-.9-1.6-1.2-2.3,0,.2,0,.4,0,.7v2.3h-.5v-3.9h.6c.4.9.8,1.8,1.4,2.7.6-.9,1-1.8,1.4-2.7h.6ZM67.7,28.5c-1.7.7-3.6,1.2-5.5,1.2-3.7,0-6-1.9-6.3-5.9h12.8c0-.7.2-1.6.2-2.5,0-4.8-2.9-8.4-7.9-8.4s-8.9,4.1-8.9,10.1,3.9,10.1,9.9,10.1,4.7-.5,6.4-1.3l-.6-3.1h0ZM60.9,16c2.9,0,4.2,2.2,4.2,4.8s0,.4,0,.6h-9.2c.3-3.3,2.1-5.4,5-5.4ZM70.6,32.5h3.7c.8-3.1,2.4-5.4,4.2-7.8,1.6,2,3.7,5.1,4.9,7.8h4.1c-1.9-4.3-3.8-7-6.3-9.9,3-3,4.7-5.7,5.7-9.4h-3.9c-.5,2.4-1.9,4.7-3.9,7.1-1.8-2.2-3.7-5.1-4.4-7.1h-4.1c1.3,3.6,3.3,6.3,5.8,9.1-3.1,3.3-4.9,6.2-6,10.2h0ZM104.3,28.5c-1.7.7-3.6,1.2-5.5,1.2-3.7,0-6-1.9-6.3-5.9h12.8c0-.7.2-1.6.2-2.5,0-4.8-2.9-8.4-7.9-8.4s-8.9,4.1-8.9,10.1,3.9,10.1,9.9,10.1,4.7-.5,6.4-1.3l-.6-3.1h0ZM97.6,16c2.9,0,4.2,2.2,4.2,4.8s0,.4,0,.6h-9.2c.3-3.3,2.1-5.4,5-5.4ZM112.6,32.5V5l-3.8.2v27.3h3.8ZM133.3,22.9c0-6-3.3-10.1-8.9-10.1s-8.9,4.1-8.9,10.1,3.3,10.1,8.9,10.1,8.9-4.1,8.9-10.1ZM119.4,22.9c0-4.1,1.7-6.8,5-6.8s5,2.7,5,6.8-1.6,6.9-5,6.9-5-2.7-5-6.9ZM140.3,32.5v-15.5c1.3-.6,2.8-1,4.4-1,2.8,0,4.2,1.6,4.2,4.4v12.1h3.8v-12.4c0-4.6-2.8-7.3-8-7.3s-5.8.7-8.2,1.8v18h3.8Z"/>
    <path id="Vector_2" class="st0" d="M39.4,24.1c-.6-1.6-1.5-3.3-2.3-4.7-1.1-1.8-1.4-3.6-1-6,.5-3.4-.4-6.6-2.4-8.5-1.3-1.2-3.8-2.4-7.8-1.4-3.3.9-6.3-.8-8.8-2.1C15.1.4,13.7-.4,12.5.2c-.7.3-1.1,1-1.4,2.2-.7,3.1-1.4,5.3-2.2,6.8-.7,1.3-1.4,2.1-2.3,2.7-2.4,1.6-4.2,3.3-5.3,5.2C.2,18.7-.2,20.5,0,22.2c.2,1.5.9,2.9,1.9,4,1,1.1,2.4,2,3.9,2.4,1.2.4,2.2,1,2.9,2,.7.9,1.3,2.2,1.7,3.7.4,1.4,1,2.6,1.8,3.6.8.9,1.8,1.6,3,1.9.5.1,1,.2,1.6.2.8,0,1.7-.2,2.5-.5,1.5-.6,3-1.6,4.5-3,1.4-1.4,2.7-2.3,4.1-2.8,1.2-.4,2.3-.5,3.5-.6,1.4,0,2.8-.2,4.4-.8,2-.8,3.3-1.9,3.8-3.4.5-1.3.4-2.8-.3-4.7h0ZM36.5,24c-.2,2.7-1.5,4.9-3.8,6.6-1,.7-2,1.2-2.9,1.6.7-.5,1.3-1.1,1.9-1.7,1.4-1.5,2.5-3.2,3.1-5.2.7-1.9,1-3.8.9-5.8,0-.4,0-.9-.1-1.3,0,.1.1.3.2.4.6,1.9.8,3.7.7,5.4h0ZM21.2,34.7c-.2,0-.4,0-.5,0-3.7,0-7.2-1.4-9.9-3.9-2.8-2.7-4.5-6.3-4.6-10.2-.1-3.9,1.2-7.6,3.9-10.5,2.6-2.9,6.2-4.5,10.1-4.7.2,0,.4,0,.5,0,3.7,0,7.2,1.4,9.9,3.9,2.8,2.7,4.5,6.3,4.6,10.2.1,3.9-1.2,7.6-3.9,10.5-2.6,2.9-6.2,4.5-10.1,4.7ZM31,8.9c-1.5-1.4-3.2-2.5-5.1-3.2-1.1-.4-2.2-.7-3.3-.8,4-.4,7.3,1.4,9.3,4.9-.3-.3-.6-.6-.9-.9ZM14.5,6.1c-1.9.8-3.5,2-4.9,3.5,0,0,0,.1-.1.1.2-.4.3-.8.5-1.2.2-.3.4-.7.5-1,1.4-2.7,3.9-2.6,6.9-2.4,0,0,.1,0,.2,0-1.1.2-2.1.6-3.2,1ZM5.5,20.6c0,2,.5,3.9,1.3,5.7.5,1.1,1.1,2.1,1.8,3-1.9-1.4-3.2-3.4-3.7-5.6-.5-2.3-.2-4.7,1-7.1-.3,1.3-.4,2.6-.4,4h0ZM15.5,34.4c1.7.6,3.4.9,5.2.9s.4,0,.5,0c.9,0,1.8-.1,2.7-.3-1.5.9-3,1.3-4.6,1.3s-.6,0-.9,0c-1.8-.2-3.5-1.1-4.7-2.5,0,0-.2-.2-.2-.3.7.4,1.4.7,2.1,1ZM33.6,11.8c-.3-.6-.6-1.1-.9-1.7-1-2-2.4-3.6-4.2-4.6-1-.6-2.1-1-3.3-1.1,2-.2,3.9.2,5.3,1.3.9.7,1.7,1.6,2.3,2.7.6,1.1.9,2.3,1.1,3.6,0,.2,0,.5,0,.7-.1-.3-.3-.5-.4-.8ZM17.5,4.5c-1.5,0-3-.1-4.3.2-.9.2-1.6.6-2.2,1.2.1-.3.2-.6.3-.9.5-1.5,1.3-2,2.4-2s1.9.3,3.2.7c.9.3,2,.6,3.1.8-.8,0-1.6,0-2.4,0h0ZM6,15.2c-1.7,2.9-2.3,5.8-1.6,8.6.3,1.5,1,2.9,2,4.1-1.9-1.2-3.1-2.9-3.4-5-.3-1.9.1-5,3.6-8.6-.2.3-.3.6-.5.8h0ZM13.2,34.1c1.4,1.5,3.1,2.5,5.1,2.7.3,0,.7,0,1,0,1.2,0,2.4-.3,3.6-.8-2,1.4-4.1,1.9-6,1.5-1.9-.4-3.5-1.8-4.4-3.8-.2-.5-.5-1-.9-1.5.5.5,1.1,1.1,1.6,1.7h0ZM31.3,32.2c.6-.3,1.2-.7,1.8-1.1,2.4-1.8,3.8-4.1,4-7,0-.8,0-1.6,0-2.4.5,1.4.7,2.6.7,3.7,0,1.2-.2,2.3-.8,3.2-.6,1-1.5,1.9-2.8,2.6-1,.6-2,.8-2.9,1.1h0ZM33.2,5.4c1.9,1.7,2.7,4.7,2.2,7.9-.1.8-.2,1.5-.1,2.2-.1-.2-.2-.5-.3-.7-.2-.9-.4-1.9-.5-2.9-.2-1.4-.5-2.7-1.1-3.8-.6-1.2-1.5-2.2-2.5-2.9-1-.7-2.1-1.1-3.3-1.3,2.8-.3,4.6.6,5.6,1.6ZM12.8.7c.2,0,.3-.1.5-.1.9,0,2.1.6,3.4,1.4,1.5.8,3.2,1.7,5.1,2.2-1.7,0-3.4-.5-4.9-1-1.4-.4-2.7-.8-3.7-.7-.7,0-1.3.4-1.8.9,0-.3.1-.6.2-.9.2-1,.6-1.6,1.1-1.8h0ZM2.4,25.8c-1-1.1-1.6-2.3-1.8-3.7-.2-1.6.2-3.2,1.1-4.7,1-1.8,2.8-3.4,5.1-5,.3-.2.6-.4.9-.7,0,0,0,.1-.1.2-.4.6-.8,1.1-1.2,1.6-4,4-4.4,7.3-4.1,9.5.3,1.8,1.2,3.4,2.6,4.6-.9-.4-1.8-1.1-2.5-1.8h0ZM19.2,39c-1.3.5-2.6.6-3.7.3-1-.3-1.9-.8-2.7-1.7-.8-.9-1.3-2-1.7-3.3-.3-1-.6-1.9-1-2.7.7.8,1.3,1.7,1.8,2.6,1,2.2,2.8,3.7,4.9,4.1.5.1.9.2,1.4.2,1.3,0,2.6-.4,3.9-1-.9.7-1.9,1.3-2.8,1.6h0ZM39.2,28.6c-.5,1.3-1.6,2.4-3.5,3.1-1.1.4-2,.6-2.9.7.6-.2,1.1-.4,1.7-.7,2.6-1.4,3.9-3.5,3.9-6.3,0-1-.2-2.1-.6-3.3.4.8.7,1.5,1,2.3.6,1.7.7,3.2.3,4.3Z"/>
  </g>
</svg>