<?xml version="1.0" encoding="UTF-8"?>
<svg id="Layer_1" xmlns="http://www.w3.org/2000/svg" version="1.1" viewBox="0 0 229.2 199.4">
  <!-- Generator: Adobe Illustrator 29.0.1, SVG Export Plug-In . SVG Version: 2.1.0 Build 192)  -->
  <defs>
    <style>
      .st0 {
        fill: #b3b3b3;
      }
    </style>
  </defs>
  <path class="st0" d="M111.8,173c57.7-4.9,92.3-33,92.3-33l5.7,2.8c-16.3,13-53,33.5-98,37.1v-6.9Z"/>
  <path class="st0" d="M19.5,140.1s34.6,28.1,92.3,33v6.9c-44.9-3.6-81.7-24.1-98-37.1l5.7-2.8Z"/>
  <path class="st0" d="M204.1,24.2s-46.6-4.1-92.8-4.1-91.8,4.1-91.8,4.1l-5.7-5.2c8.6-.7,58.2-4.6,98-4.6s89.4,3.8,98,4.6l-5.7,5.2Z"/>
  <polygon class="st0" points="19.5 24.2 19.5 140.1 13.8 142.9 13.8 19 19.5 24.2"/>
  <polygon class="st0" points="204.1 24.2 204.1 140.1 209.8 142.9 209.8 19 204.1 24.2"/>
  <path class="st0" d="M111.8,166.7c47.7-4.1,79.2-23.8,87.2-29.3l5.1,2.6s-34.6,28.1-92.3,33v-6.4Z"/>
  <path class="st0" d="M111.8,166.7c47.7-4.1,79.2-23.8,87.2-29.3l5.1,2.6s-34.6,28.1-92.3,33v-6.4Z"/>
  <path class="st0" d="M24.6,137.4c8,5.5,39.5,25.1,87.2,29.3v6.3c-57.7-4.9-92.3-33-92.3-33l5.1-2.6Z"/>
  <path class="st0" d="M24.6,137.4c8,5.5,39.5,25.1,87.2,29.3v6.3c-57.7-4.9-92.3-33-92.3-33l5.1-2.6Z"/>
  <path class="st0" d="M199,28.9c-12.9-1-50.7-3.7-87.6-3.7s-73.2,2.8-86.7,3.8l-5.2-4.8s51-4.1,91.8-4.1,92.8,4.1,92.8,4.1l-5.1,4.7Z"/>
  <path class="st0" d="M199,28.9c-12.9-1-50.7-3.7-87.6-3.7s-73.2,2.8-86.7,3.8l-5.2-4.8s51-4.1,91.8-4.1,92.8,4.1,92.8,4.1l-5.1,4.7Z"/>
  <polygon class="st0" points="24.6 29 24.6 137.4 19.5 140.1 19.5 24.2 24.6 29"/>
  <polygon class="st0" points="24.6 29 24.6 137.4 19.5 140.1 19.5 24.2 24.6 29"/>
  <polygon class="st0" points="199 137.4 199 28.9 204.1 24.2 204.1 140.1 199 137.4"/>
  <polygon class="st0" points="199 137.4 199 28.9 204.1 24.2 204.1 140.1 199 137.4"/>
  <path class="st0" d="M37.3,87.5h9.8v-22h8.7l2-7.1h-10.7v-10.9h14.5l2.5-7.5h-26.8v47.5ZM43.4,137.7c4.4,1.7,9.2,2.6,13.9,2.5,14.1,0,18.6-9.7,18.6-15,0-16.9-20.8-13.7-20.8-21.4s2.8-4.4,7.8-4.4c2.6,0,5.2.4,7.7,1.3l-2.2-7.1c-2.4-.8-4.8-1.2-7.3-1.2-11.8,0-16.4,6.3-16.4,11.9,0,14.1,21.1,11.2,21.1,20.5s-2.1,7-11.9,7-11.7-2.7-12.9-3.3l2.5,9.1h0ZM145.4,150.7h9.2v-13.4c2,1.1,4.3,1.8,6.6,1.8,6.7,0,19.4-4.5,19.4-19.6.2-10.4-8.1-18.9-18.5-19.1-.2,0-.4,0-.6,0-5.5,0-11,1.1-16.1,3.2v47.1h0ZM160.2,130.6c-2,0-3.9-.5-5.6-1.6v-18.3c1.2-1.5,3.9-2,6-2,6.7,0,11,5.1,11,11.6s-5.1,10.4-11.4,10.4h0ZM137.8,87.7c6.5,0,14.3-4.4,14.3-13.3s-14.7-11.8-14.7-16.8,3.4-3.4,6.1-3.4c1.9,0,3.8.4,5.6,1.1l-3-7.1c-1.5-.3-3.1-.5-4.6-.5-6.5,0-13.7,3.3-13.7,10.3,0,10.3,14.8,10,14.8,17.4s-4,5-8.2,5-7-1.7-10.4-3.2l3.2,8.6c1.4.6,4.3,2,10.8,2ZM176.9,87.5h9.4v-32.2c0-4.6-5.1-8.2-11.5-8.2-3,0-6,.8-8.6,2.4v-12.7h-9.5v50.7h9.5v-30.3c1.9-1.4,4.2-2.2,6.5-2.2,2.9,0,4.2,1.7,4.2,2.9v29.6h0ZM64,87.5h9.6v-30c2.5-1.8,5.6-2.3,8.5-1.4l2.1-7c-2.1-.5-4.2-.8-6.3-.8-5.7,0-10.8,1.7-13.9,4.5v34.6ZM81.2,93.9v36.8c0,5.5,6.4,9.2,14.4,9l2.5-7.6c-.9.3-1.9.4-2.8.5-1.9,0-3.7-1-4.7-2.6v-21.1h8.4l2.4-7.3h-11.2v-7.7h-9ZM84.5,68.2c0,12.2,8.5,19.5,22.8,19.5,3,0,6-.3,8.9-.9l2.3-7.1c-2.5,1.4-5.3,2.1-8.2,2.2-8.6,0-14.9-3.8-15.6-12.4h28.8c0-3.1,1.2-21.2-19-21.2-11.5,0-20,7.7-20,19.9h0ZM94.7,63.2c1-5,4.6-8.5,10.1-8.5s9.1,2.2,9.1,8.5h-19.2ZM101.6,120.3c0,12.2,8.5,19.5,22.8,19.5,3,0,6-.3,8.9-.9l2.3-7.1c-2.5,1.4-5.3,2.1-8.2,2.2-8.6,0-15-3.8-15.6-12.4h28.8c0-3.1,1.2-21.3-19-21.3-11.5,0-20,7.7-20,20h0ZM111.8,115.3c1-5,4.6-8.5,10.1-8.5s9.1,2.2,9.1,8.5h-19.2Z"/>
  <path class="st0" d="M161.1,151c-1.4,0-2.6-1.1-2.6-2.5,0,0,0-.1,0-.2,0-1.4,1.2-2.6,2.6-2.6,1.4,0,2.6,1.2,2.6,2.6,0,1.4-1.2,2.6-2.6,2.6ZM161.1,146.2c-1.2-.1-2.3.8-2.4,2s.8,2.3,2,2.4c1.2.1,2.3-.8,2.4-2,0,0,0-.1,0-.2,0-1.1-.7-2.1-1.9-2.2,0,0,0,0-.1,0h0ZM160.6,149.9h-.5v-2.9h1.1c.7,0,1.1.2,1.1.9,0,.4-.3.8-.7.8,0,0,0,0,0,0l.8,1.3h-.6l-.8-1.2h-.5v1.2ZM161.1,148.2c.4,0,.7,0,.7-.5s-.4-.4-.6-.4h-.6v.9h.5Z"/>
</svg>