<?xml version="1.0" encoding="UTF-8"?>
<svg id="Layer_1" xmlns="http://www.w3.org/2000/svg" xmlns:serif="http://www.serif.com/" version="1.1" viewBox="0 0 1080 1080">
  <!-- Generator: Adobe Illustrator 29.0.1, SVG Export Plug-In . SVG Version: 2.1.0 Build 192)  -->
  <defs>
    <style>
      .st0 {
        fill: #b3b3b3;
        fill-rule: evenodd;
      }
    </style>
  </defs>
  <path class="st0" d="M283.4,439v31.7c0,30.2-24.4,54.6-54.6,54.6h-120.2c-5.9,0-10.9,2.1-15.2,6.4-4.2,4.2-6.3,9.3-6.3,15.2s2.1,11.4,6.3,15.7c4.2,4.3,9.3,6.5,15.2,6.5h89.8c14.7,0,28.7,2.5,41.7,7.4,13.1,5,24.4,11.9,34.1,20.8,9.7,8.9,17.4,19.6,23.1,32,5.7,12.5,8.5,26.1,8.5,40.9s-2.8,29-8.5,42c-5.7,13-13.4,24.4-23.1,34.3-9.7,9.8-21.1,17.6-34.1,23.2-13.1,5.6-27,8.4-41.7,8.4H1.3v-36.6c2.5-27.8,25.9-49.7,54.4-49.7h142.6c5.9,0,11-2.1,15.2-6.3,4.2-4.2,6.3-9.3,6.3-15.2s-2.1-10.1-6.3-12.1-9.3-2.8-15.2-2.8h-89.8c-15,0-29-2.9-42-8.6-13.1-5.7-24.4-13.5-34.1-23.3-9.7-9.8-17.3-21.3-22.9-34.4-4.7-11-7.4-22.7-8.2-35v-14.4c.8-12.3,3.5-24,8.2-35,5.6-13.1,13.2-24.6,22.9-34.3,9.7-9.7,21.1-17.4,34.1-23,13.1-5.6,27.1-8.4,42-8.4h174.8ZM421.8,303.5v135.9h131v31.8c0,30.2-24.5,54.6-54.7,54.6h-76.3v101c0,9.1,1.7,17.6,5.1,25.6,3.4,7.9,8,14.9,13.9,20.8,5.9,5.9,12.9,10.7,20.9,14.1s16.6,5.2,25.6,5.2h65.5v86.4h-65.5c-20.9,0-40.5-4-58.9-11.9-18.3-7.9-34.4-18.8-48.2-32.7-13.8-13.9-24.7-30-32.6-48.4-7.9-18.4-11.9-38.1-11.9-59.1v-323.3h86.1ZM691.1,439v284.7c0,30.1-24.4,54.5-54.5,54.5h-32.3v-339.2h86.7ZM803.2,438.6c17.7,0,34.3,8.7,44.5,23.2l51.3,73.6,66.9-96.8h104.9l-123.1,166.5,123.1,173.1h-75.4c-18.4,0-35.6-9.3-45.6-24.8l-50.9-78.7-67.5,103.4h-104.9l122.8-173.1-122.8-166.5h76.6ZM647.8,289.3c8.1,0,15.6,1.6,22.7,4.6,7.1,3.1,13.3,7.3,18.6,12.5,5.3,5.2,9.5,11.4,12.6,18.6,3.1,7.2,4.6,14.7,4.6,22.6s-1.5,15.7-4.6,22.8c-3.1,7.1-7.3,13.2-12.6,18.4-5.3,5.2-11.5,9.4-18.6,12.5-7.1,3.1-14.7,4.6-22.7,4.6s-15.6-1.6-22.7-4.6c-7.1-3.1-13.3-7.3-18.5-12.5-5.2-5.2-9.3-11.4-12.4-18.4-3.1-7.1-4.6-14.6-4.6-22.8s1.5-15.4,4.6-22.6c3.1-7.2,7.2-13.4,12.4-18.6,5.2-5.2,11.3-9.4,18.5-12.5,7.1-3.1,14.7-4.6,22.7-4.6Z"/>
</svg>