<?xml version="1.0" encoding="UTF-8"?>
<svg id="Layer_1" xmlns="http://www.w3.org/2000/svg" version="1.1" viewBox="0 0 236 50">
  <!-- Generator: Adobe Illustrator 29.0.1, SVG Export Plug-In . SVG Version: 2.1.0 Build 192)  -->
  <defs>
    <style>
      .st0 {
        fill: #d9d9d9;
      }

      .st0, .st1 {
        fill-rule: evenodd;
      }

      .st1 {
        fill: #b3b3b3;
      }
    </style>
  </defs>
  <path class="st1" d="M86.8,14.5h3.1l-7.6,21.2h-2.6l-7.6-21.2h3.1l5.8,16.9,5.8-16.9Z"/>
  <path class="st1" d="M232.8,35.2h3.1l-7.6-21.2h-2.6l-7.6,21.2h3.1l5.8-16.9,5.8,16.9Z"/>
  <path class="st1" d="M104.2,14.3v21.2h-2.9V14.3h2.9Z"/>
  <path class="st1" d="M135.3,14.3v21.2h-2.9l-11.9-16.9s0,2.9,0,5.6v11.3h-2.9V14.3h3.1l11.7,16.6s0-2.6,0-5.4v-11.2h2.9Z"/>
  <path class="st1" d="M161.3,33v2.5h-12.4V14.3h12.1v2.5h-9.2v6.3h8.7v2.5h-8.7v7.4h9.4Z"/>
  <path class="st1" d="M186.4,14.3v2.5h-5.8v18.7h-2.9v-18.7h-5.8v-2.5h14.6Z"/>
  <path class="st1" d="M210.4,14.3v2.5h-5.8v18.7h-2.9v-18.7h-5.8v-2.5h14.6Z"/>
  <path class="st0" d="M.1,49.9L16.1,6h9.6l16,43.9h-10.7l-10.1-30.2-10.1,30.2H.1Z"/>
  <path class="st1" d="M42,0l-16.1,44h-9.7L0,0h10.8l10.2,30.3L31.2,0h10.8Z"/>
</svg>